<svg xmlns="http://www.w3.org/2000/svg" width="1200" height="760" viewBox="0 0 1200 760" role="img" aria-labelledby="title desc">
  <title id="title">Coverkarte zu Die beiden Freundinnen und ihr Giftmord</title>
  <desc id="desc">Typografische Karte mit Berliner Grossstadtlinien, Briefspuren und einer spannungsvollen Farbfläche.</desc>
  <defs>
    <linearGradient id="bg" x1="0" x2="1" y1="0" y2="1">
      <stop offset="0%" stop-color="#efe2cf"/>
      <stop offset="52%" stop-color="#d8c1a2"/>
      <stop offset="100%" stop-color="#7d4a3a"/>
    </linearGradient>
    <linearGradient id="line" x1="0" x2="1">
      <stop offset="0%" stop-color="#372420" stop-opacity="0.15"/>
      <stop offset="100%" stop-color="#372420" stop-opacity="0.52"/>
    </linearGradient>
  </defs>
  <rect width="1200" height="760" fill="url(#bg)"/>
  <g opacity="0.22">
    <path d="M60 610H1160" stroke="url(#line)" stroke-width="4"/>
    <path d="M120 540H1100" stroke="url(#line)" stroke-width="2"/>
    <path d="M180 470H1040" stroke="url(#line)" stroke-width="2"/>
    <path d="M240 400H980" stroke="url(#line)" stroke-width="2"/>
    <path d="M300 330H920" stroke="url(#line)" stroke-width="2"/>
    <path d="M360 260H860" stroke="url(#line)" stroke-width="2"/>
  </g>
  <g opacity="0.25" fill="none" stroke="#2f1d19" stroke-width="3">
    <path d="M88 118c88 44 152 78 214 136 62 58 84 108 145 160"/>
    <path d="M1088 112c-108 56-176 110-236 168-60 58-90 120-150 176"/>
    <path d="M252 150c48 18 92 42 132 76 40 34 70 72 98 114"/>
  </g>
  <rect x="74" y="74" width="1052" height="612" rx="34" fill="rgba(255,248,240,0.12)" stroke="rgba(42,24,20,0.22)" stroke-width="2"/>
  <text x="92" y="132" font-family="'Avenir Next','Segoe UI',sans-serif" font-size="26" letter-spacing="5" fill="#51362e">ALFRED DOEBLIN</text>
  <text x="92" y="282" font-family="'Iowan Old Style','Palatino Linotype',serif" font-size="88" fill="#241715">Die beiden</text>
  <text x="92" y="380" font-family="'Iowan Old Style','Palatino Linotype',serif" font-size="88" fill="#241715">Freundinnen</text>
  <text x="92" y="478" font-family="'Iowan Old Style','Palatino Linotype',serif" font-size="88" fill="#241715">und ihr Giftmord</text>
  <text x="96" y="564" font-family="'Avenir Next','Segoe UI',sans-serif" font-size="30" fill="#4d352d">Berlin · Briefe · Arsen · Prozess · Symbiose</text>
  <g transform="translate(830 154)">
    <rect x="0" y="0" width="220" height="298" rx="18" fill="rgba(255,248,240,0.18)" stroke="rgba(36,23,21,0.25)"/>
    <path d="M42 56h136v186H42z" fill="rgba(255,247,238,0.9)"/>
    <path d="M62 84h96M62 114h96M62 144h78M62 174h96M62 204h68" stroke="#7d4a3a" stroke-width="5" stroke-linecap="round" opacity="0.75"/>
    <path d="M36 238c46-30 74-50 94-76 18-24 36-60 64-120" fill="none" stroke="#2f1d19" stroke-width="4"/>
  </g>
</svg>
